<svg xmlns="http://www.w3.org/2000/svg" viewBox="0 0 480.71 395.24"><defs><style>.cls-1{fill:#040006;}.cls-2{fill:#af2639;}.cls-3{fill:#851b2b;}.cls-4{fill:#631721;}.cls-5{fill:#c56878;}</style></defs><title>Alavanca_DIR</title><g id="Camada_2" data-name="Camada 2"><g id="Camada_1-2" data-name="Camada 1"><g id="Alavanca_DIR"><rect class="cls-1" y="262.33" width="480.71" height="132.91"/><rect class="cls-1" x="281.28" y="60.15" width="62.33" height="308.47" transform="translate(156.23 -130.84) rotate(31.2)"/><rect class="cls-2" x="335.19" y="32.32" width="140.65" height="56.74" transform="translate(90.08 -201.27) rotate(31.2)"/><ellipse class="cls-1" cx="380.88" cy="36" rx="10.19" ry="7.99" transform="translate(152.83 343.18) rotate(-58.81)"/><ellipse class="cls-1" cx="436.78" cy="69.85" rx="10.19" ry="7.99" transform="translate(150.83 407.32) rotate(-58.81)"/><path class="cls-3" d="M402.35,67.39S397.2,89,405.1,91.7s10.79-20.94,10.79-20.94S408.38,71.72,402.35,67.39Z"/><path class="cls-4" d="M407.94,70.76a29.38,29.38,0,0,0-2.2,8.75c-.15,1.32,2.1,3.37,2.31,1.44a27.33,27.33,0,0,1,2-8.1c.53-1.2-1.45-3.67-2.15-2.09Z"/><path class="cls-1" d="M417.74,67.65c-10.4.78-20.54-4.48-24.62-14.37-1.52-3.71-5.34-1.89-3.83,1.78A30.31,30.31,0,0,0,419.37,73.8c3.1-.23,1.07-6.36-1.63-6.15Z"/><ellipse class="cls-5" cx="433.97" cy="86.4" rx="5.5" ry="9.5" transform="translate(135.31 412.89) rotate(-58.81)"/><ellipse class="cls-5" cx="368.96" cy="47.04" rx="5.5" ry="9.5" transform="translate(137.63 338.3) rotate(-58.81)"/></g></g></g></svg>