<svg xmlns="http://www.w3.org/2000/svg" viewBox="0 0 480.71 396.03"><defs><style>.cls-1{fill:#040006;}.cls-2{fill:#898989;}</style></defs><title>Alavanca_ESQ</title><g id="Camada_2" data-name="Camada 2"><g id="Camada_1-2" data-name="Camada 1"><g id="Alavanca_ESQ"><rect class="cls-1" y="263.12" width="480.71" height="132.91"/><rect class="cls-1" x="137.33" y="60.42" width="62.33" height="308.46" transform="translate(-86.26 116.84) rotate(-30.86)"/><rect class="cls-2" x="6.01" y="32.06" width="140.65" height="56.74" transform="translate(-20.19 47.71) rotate(-30.86)"/><path class="cls-1" d="M91,57.23A25.76,25.76,0,0,1,64.49,72c-2.89-.36-1.06,5.82,1.63,6.15,12.39,1.52,24-5.61,29.17-16.7,1.12-2.38-2.82-7.34-4.3-4.18Z"/><path class="cls-1" d="M100.4,34.82C99.55,39.49,97,43.3,92,43.62a14.33,14.33,0,0,1-6.07-1c-3.14-1.24-2,5,.44,6a16.84,16.84,0,0,0,8.74,1c6.1-1.06,9-6.19,10-11.88.48-2.66-4-6.77-4.65-2.9Z"/><path class="cls-1" d="M51.73,63.48c-.85,4.67-3.41,8.49-8.44,8.8a14.19,14.19,0,0,1-6.08-1c-3.14-1.25-2,5,.44,6a16.84,16.84,0,0,0,8.74,1c6.1-1.06,9-6.19,10-11.87.49-2.67-3.94-6.77-4.65-2.91Z"/></g></g></g></svg>