<svg xmlns="http://www.w3.org/2000/svg" viewBox="0 0 480.71 393.05"><defs><style>.cls-1{fill:#040006;}.cls-2{fill:#b4b8b9;}.cls-3{fill:#9d9e9e;}.cls-4{fill:#cf93b2;}</style></defs><title>Lua_ESQ</title><g id="Camada_2" data-name="Camada 2"><g id="Camada_1-2" data-name="Camada 1"><g id="Lua_ESQ"><rect class="cls-1" x="135.42" y="71.37" width="62.33" height="308.47" transform="translate(-95.14 124.87) rotate(-32.51)"/><rect class="cls-2" x="5" y="265.14" width="470.71" height="122.91"/><path class="cls-3" d="M470.71,270.14V383.05H10V270.14H470.71m10-10H0V393.05H480.71V260.14Z"/><path class="cls-1" d="M96.9,88.86a25.71,25.71,0,0,1-25.62,16.19c-3-.2-1.09,6,1.63,6.16,12.42.85,23.71-6.82,28.29-18.16,1-2.43-3-7.39-4.3-4.19Z"/><path class="cls-2" d="M4.65,30.85A88.53,88.53,0,0,1,19.62,0,88.77,88.77,0,0,0,85,74.23a88.76,88.76,0,0,0,93.48-32.34,88.76,88.76,0,1,1-173.82-11Z"/><ellipse class="cls-4" cx="73.72" cy="80.13" rx="8.02" ry="3.11" transform="translate(-34.6 69.04) rotate(-41.54)"/><ellipse class="cls-4" cx="38.28" cy="107.88" rx="8.02" ry="3.11" transform="translate(-51.98 37.48) rotate(-32.51)"/><path class="cls-1" d="M61.19,86.77c-.46,4.51-2.43,8.47-7.31,9a13.57,13.57,0,0,1-6-.72c-3.21-1.16-2,5.09.44,6a16.22,16.22,0,0,0,8.48.69c5.92-1.2,8.45-6.45,9-12a4.47,4.47,0,0,0-1.94-4.17,1.69,1.69,0,0,0-2.71,1.26Z"/><circle class="cls-3" cx="14.61" cy="61.42" r="11.29"/><circle class="cls-3" cx="82.98" cy="123.4" r="16"/><circle class="cls-3" cx="159.16" cy="93.71" r="7.9" transform="translate(-22.35 127.88) rotate(-41.15)"/><circle class="cls-3" cx="125.53" cy="94.51" r="11.9" transform="translate(-29.52 69.04) rotate(-27.65)"/><path class="cls-1" d="M61.28,72.61c.2,3.14-.32,6.31-3.9,6.17A10.54,10.54,0,0,1,54.26,78l-.56-.23c-.69-.28.19.09-.11,0l-.41-.21c-3.43-1.91-3.14,4.1-.76,5.43a13.92,13.92,0,0,0,7.4,2C65.38,84.5,66.26,78.58,66,74c-.09-1.43-1.08-3.31-2.57-3.71s-2.21,1-2.13,2.28Z"/><path class="cls-1" d="M37,88.85c.19,3.14-.34,6.29-3.92,6.15A10.24,10.24,0,0,1,30,94.23L29.43,94c-.69-.28.19.09-.11,0l-.41-.21c-3.43-1.91-3.14,4.1-.76,5.43a13.94,13.94,0,0,0,7.4,2c5.57-.42,6.45-6.33,6.17-10.87-.09-1.43-1.07-3.32-2.56-3.71S37,87.55,37,88.85Z"/></g></g></g></svg>