<svg xmlns="http://www.w3.org/2000/svg" viewBox="0 0 480.71 471.67"><defs><style>.cls-1{fill:#040006;}.cls-2{fill:#d5d7d1;}.cls-3{fill:#b4b8b9;}.cls-4{fill:#cf93b2;}</style></defs><title>Lua_IDLE</title><g id="Camada_2" data-name="Camada 2"><g id="Camada_1-2" data-name="Camada 1"><g id="Lua_IDLE"><rect class="cls-1" x="209.77" y="115" width="62.33" height="308.47"/><rect class="cls-2" x="5" y="343.76" width="470.71" height="122.91"/><path class="cls-3" d="M470.71,348.76V461.67H10V348.76H470.71m10-10H0V471.67H480.71V338.76Z"/><path class="cls-1" d="M255,116.44c-9.12,6.4-21,7-30.21.24-3.11-2.29-2.9,3.86-.76,5.42a28.92,28.92,0,0,0,33.72.24c2.38-1.67-.51-7.46-2.75-5.9Z"/><path class="cls-2" d="M209,18a88.41,88.41,0,0,1,29.2-18A88.78,88.78,0,0,0,349.68,120.7,88.76,88.76,0,1,1,209,18Z"/><ellipse class="cls-1" cx="233.67" cy="86.12" rx="6.11" ry="6.9" transform="translate(-3.43 9.96) rotate(-2.42)"/><ellipse class="cls-1" cx="200.52" cy="87.04" rx="6.11" ry="6.9" transform="translate(-3.5 8.56) rotate(-2.42)"/><ellipse class="cls-4" cx="240.8" cy="96.65" rx="8.02" ry="3.11" transform="translate(-12.19 38.99) rotate(-9.03)"/><ellipse class="cls-4" cx="196" cy="101.01" rx="8.02" ry="3.11"/><path class="cls-1" d="M226,95.39c-2.79,3.43-6.49,6.16-11,4.08a11.53,11.53,0,0,1-3-2.14c-.45-.42-1.13-1.2-1-1-2.63-3.38-5.11.53-3,3.29a18.64,18.64,0,0,0,7.41,5.84c5.66,2.32,10.56-.44,14.17-4.88,1.71-2.11-1.74-7.58-3.66-5.21Z"/><circle class="cls-3" cx="200.99" cy="49.11" r="11.29"/><circle class="cls-3" cx="225.35" cy="138.12" r="16"/><circle class="cls-3" cx="305.55" cy="154.02" r="7.9" transform="translate(-19.73 47.83) rotate(-8.67)"/><circle class="cls-3" cx="276.75" cy="136.62" r="11.9" transform="translate(120.78 402.94) rotate(-85.92)"/></g></g></g></svg>