<svg xmlns="http://www.w3.org/2000/svg" viewBox="0 0 480.71 419.35"><defs><style>.cls-1{fill:#040006;}.cls-2{fill:#d5d7d1;}.cls-3{fill:#b4b8b9;}.cls-4{fill:#af2639;}.cls-5{fill:#851b2b;}.cls-6{fill:#cf93b2;}</style></defs><title>Lua_DIR</title><g id="Camada_2" data-name="Camada 2"><g id="Camada_1-2" data-name="Camada 1"><g id="Lua_DIR"><rect class="cls-1" x="281.13" y="82.52" width="62.33" height="308.47" transform="translate(157.11 -123.11) rotate(29.51)"/><rect class="cls-2" x="5" y="291.44" width="470.71" height="122.91"/><path class="cls-3" d="M470.71,296.44V409.35H10V296.44H470.71m10-10H0V419.35H480.71V286.44Z"/><path class="cls-1" d="M398.69,110.85c-10.32,1.09-20.73-3.79-25.09-13.56-1.63-3.64-5.46-1.86-3.83,1.79A30.25,30.25,0,0,0,400.32,117c3.11-.33,1.06-6.44-1.63-6.16Z"/><path class="cls-2" d="M408.28,2.37a88.36,88.36,0,0,1,34.27-1.26,88.78,88.78,0,0,0,37.54,159.94A88.76,88.76,0,1,1,408.28,2.37Z"/><path class="cls-4" d="M373.9,80.56S372.41,97.83,378.8,99s5.92-17.39,5.92-17.39A16.36,16.36,0,0,1,373.9,80.56Z"/><path class="cls-5" d="M378.47,82.15a24.51,24.51,0,0,0-.77,7.43c.06,1.49,2.42,2.83,2.34.71a20.23,20.23,0,0,1,.57-6.05,2.2,2.2,0,0,0-.59-2.17c-.39-.37-1.34-.69-1.55.08Z"/><ellipse class="cls-1" cx="396.16" cy="73.81" rx="6.9" ry="6.11" transform="translate(150.08 392.93) rotate(-62.92)"/><ellipse class="cls-1" cx="366.86" cy="58.28" rx="6.9" ry="6.11" transform="translate(147.94 358.38) rotate(-62.92)"/><ellipse class="cls-6" cx="397.17" cy="86.49" rx="3.11" ry="8.02" transform="translate(177.21 428.31) rotate(-69.52)"/><ellipse class="cls-6" cx="356.04" cy="68.21" rx="3.11" ry="8.02" transform="translate(121.31 344.47) rotate(-60.49)"/><path class="cls-1" d="M383.86,78.33c-3.53,1.43-8,2.23-10.55-1.35A9.2,9.2,0,0,1,372,74.2c-.17-.54-.5-2.37-.33-1.21-.2-1.39-1-3.36-2.57-3.71-1.41-.31-2.32.91-2.13,2.28A20.09,20.09,0,0,0,370.9,81c4,5.15,9.93,5.56,15.71,3.22,2.62-1.06-.06-7-2.75-5.89Z"/><circle class="cls-3" cx="385.95" cy="25.5" r="11.29"/><circle class="cls-3" cx="363.31" cy="114.97" r="16"/><circle class="cls-3" cx="425.28" cy="168.31" r="7.9" transform="translate(117.22 506.37) rotate(-69.25)"/><circle class="cls-3" cx="408.79" cy="138.98" r="11.9" transform="matrix(0.54, -0.84, 0.84, 0.54, 70.74, 407.58)"/></g></g></g></svg>