<svg xmlns="http://www.w3.org/2000/svg" viewBox="0 0 480.71 132.91"><defs><style>.cls-1{fill:#771d2e;}.cls-2{fill:#c56878;}.cls-3{fill:#040006;}</style></defs><title>Plate_PRES</title><g id="Camada_2" data-name="Camada 2"><g id="Camada_1-2" data-name="Camada 1"><g id="Plate_PRES"><rect class="cls-1" width="480.71" height="132.91"/><ellipse class="cls-2" cx="285.99" cy="70.82" rx="16.26" ry="9.41"/><ellipse class="cls-2" cx="195.91" cy="70.82" rx="16.26" ry="9.41"/><path class="cls-3" d="M225.94,47c-9.83-.67-19.22.27-29,1-3.09.23-1.08,6.33,1.62,6.13,9.79-.73,19.18-1.66,29-1,3,.2,1.09-5.95-1.62-6.13Z"/><path class="cls-3" d="M227.71,47.85c-7.26-7.05-15.85-12-25.18-15.74-3.11-1.26-2,5,.44,6,8.46,3.43,16.24,7.87,22.82,14.27,3.05,2.95,4.05-2.44,1.92-4.5Z"/><path class="cls-3" d="M257.5,53.16c9.82-.66,19.21.27,29,1,2.95.22,1.08-5.93-1.63-6.13-9.78-.73-19.17-1.67-29-1-3.09.21-1.08,6.32,1.63,6.13Z"/><path class="cls-3" d="M258.51,52.69c6.78-6.59,14.83-11.13,23.54-14.66,2.61-1.06-.06-7-2.74-5.87-9.06,3.68-17.4,8.5-24.45,15.34-1.93,1.87,1.4,7.37,3.65,5.19Z"/><ellipse class="cls-3" cx="240.95" cy="66.6" rx="12.5" ry="13.5"/></g></g></g></svg>