<svg xmlns="http://www.w3.org/2000/svg" viewBox="0 0 480.71 132.91"><defs><style>.cls-1{fill:#af2639;}.cls-2{fill:#040006;}.cls-3{fill:#c56878;}</style></defs><title>Plate_IDLE</title><g id="Camada_2" data-name="Camada 2"><g id="Camada_1-2" data-name="Camada 1"><g id="Plate_IDLE"><rect class="cls-1" width="480.71" height="132.91"/><ellipse class="cls-2" cx="206.48" cy="46.95" rx="13.68" ry="17.44"/><ellipse class="cls-2" cx="277.44" cy="46.95" rx="13.68" ry="17.44"/><path class="cls-2" d="M256.72,61.79c-5.66,6.5-13.19,10.81-21.74,7.3A24.53,24.53,0,0,1,228.46,65c-.69-.59-1.34-1.23-2-1.87-.24-.24-1.31-1.47-.41-.4-2.74-3.26-5.22.6-3,3.29a31.7,31.7,0,0,0,12.32,9c9.72,3.84,18.49-.64,25-8.08,1.78-2-1.65-7.53-3.67-5.21Z"/><ellipse class="cls-3" cx="296" cy="73.68" rx="16.26" ry="9.41"/><ellipse class="cls-3" cx="191.82" cy="73.68" rx="16.26" ry="9.41"/></g></g></g></svg>