<svg xmlns="http://www.w3.org/2000/svg" viewBox="0 0 480.71 455.1"><defs><style>.cls-1{fill:#040006;}.cls-2{fill:#edd045;}.cls-3{fill:#cda32d;}.cls-4{fill:#e6b447;}.cls-5{fill:#d48148;}</style></defs><title>Sol_IDLE</title><g id="Camada_2" data-name="Camada 2"><g id="Camada_1-2" data-name="Camada 1"><g id="Sol_IDLE"><rect class="cls-1" x="209.77" y="98.43" width="62.33" height="308.47"/><rect class="cls-2" x="5" y="327.19" width="470.71" height="122.91"/><path class="cls-3" d="M470.71,332.19V445.1H10V332.19H470.71m10-10H0V455.1H480.71V322.19Z"/><path class="cls-4" d="M190.55,12.17S221,33.48,240.76,0c0,0,9.13,33.48,44.13,16.74,0,0,3,35,36.52,32,0,0-21.31,28.91,12.17,47.17,0,0-30.43,15.22-15.22,45.65,0,0-31.95,0-30.43,36.52,0,0-32-19.78-47.17,12.17,0,0-15.22-31.95-47.17-13.69,0,0,0-36.52-36.52-33.48,0,0,21.3-30.43-12.17-47.17,0,0,30.43-9.13,15.22-47.17C160.12,48.69,196.63,48.69,190.55,12.17Z"/><circle class="cls-2" cx="238.91" cy="96.04" r="69"/><ellipse class="cls-1" cx="206.12" cy="92.64" rx="7.99" ry="10.19"/><ellipse class="cls-1" cx="271.48" cy="92.64" rx="7.99" ry="10.19"/><path class="cls-1" d="M255,99.88c-9.12,6.39-21,7-30.21.23-3.11-2.28-2.9,3.86-.76,5.43a28.92,28.92,0,0,0,33.72.23c2.38-1.67-.51-7.46-2.75-5.89Z"/><path class="cls-5" d="M286.17,109.88c0,3.31-3.27.14-8.79.14s-11.19,3.17-11.19-.14,4.48-6,10-6S286.17,106.57,286.17,109.88Z"/><path class="cls-5" d="M213.18,109.88c0,3.31-3.27.14-8.79.14s-11.18,3.17-11.18-.14,4.47-6,10-6S213.18,106.57,213.18,109.88Z"/></g></g></g></svg>