<svg xmlns="http://www.w3.org/2000/svg" viewBox="0 0 480.71 413.03"><defs><style>.cls-1{fill:#040006;}.cls-2{fill:#d4b03e;}.cls-3{fill:#ac8a29;}.cls-4{fill:#af8227;}.cls-5{fill:#d48148;}</style></defs><title>Sol_ESQ</title><g id="Camada_2" data-name="Camada 2"><g id="Camada_1-2" data-name="Camada 1"><g id="Sol_ESQ"><rect class="cls-1" x="139.94" y="72.83" width="62.33" height="308.47" transform="translate(-89.52 113.45) rotate(-29.45)"/><rect class="cls-2" x="5" y="285.11" width="470.71" height="122.91"/><path class="cls-3" d="M470.71,290.12V403H10V290.12H470.71m10-10H0V413H480.71V280.12Z"/><path class="cls-4" d="M9,42.4S46,46,46.74,7.12c0,0,24.41,24.66,46.66-7.12,0,0,19.85,29,47.51,9.87,0,0-4.34,35.65,33.79,35.09,0,0-19,28.22,9.19,47.24,0,0-27.83,15.7-8.55,46.76,0,0-37.55-1.52-35.09,33.79,0,0-29-20.35-47.81,11.26,0,0-18-31.8-48.26-11.2,0,0,3.59-37-33.79-35.09,0,0,22-22.91-9.94-48.55C.45,89.17,32.26,71.21,9,42.4Z"/><circle class="cls-2" cx="92.35" cy="91.66" r="69" transform="translate(-37.77 92.14) rotate(-45)"/><path class="cls-1" d="M108.71,86.91a25.76,25.76,0,0,1-26.5,14.73c-2.9-.36-1.07,5.82,1.63,6.15,12.39,1.52,24-5.61,29.17-16.7,1.11-2.38-2.83-7.34-4.3-4.18Z"/><path class="cls-5" d="M140.31,80.48c1.63,2.88-2.79,1.73-7.59,4.44s-8.18,8.27-9.81,5.38,1-7.41,5.75-10.13S138.68,77.6,140.31,80.48Z"/><path class="cls-5" d="M76.75,116.36c1.63,2.89-2.78,1.73-7.59,4.44s-8.18,8.27-9.81,5.39.95-7.42,5.76-10.13S75.12,113.48,76.75,116.36Z"/><path class="cls-1" d="M118.12,64.5c-.85,4.67-3.41,8.49-8.45,8.8a14.15,14.15,0,0,1-6.07-1c-3.14-1.24-2,5,.44,6a16.83,16.83,0,0,0,8.74,1c6.09-1.06,9-6.19,10-11.88.48-2.66-4-6.77-4.65-2.9Z"/><path class="cls-1" d="M69.45,93.17C68.6,97.83,66,101.65,61,102a14.17,14.17,0,0,1-6.07-1c-3.14-1.24-2,5,.44,6a16.73,16.73,0,0,0,8.74,1c6.1-1,9-6.19,10-11.87.48-2.66-3.95-6.77-4.65-2.9Z"/></g></g></g></svg>