<svg xmlns="http://www.w3.org/2000/svg" viewBox="0 0 436.79 244.37"><defs><style>.cls-1{fill:#494949;}.cls-2{fill:#020202;}</style></defs><title>spikes</title><g id="Camada_2" data-name="Camada 2"><g id="Camada_1-2" data-name="Camada 1"><path class="cls-1" d="M436,148.34c.15,26.7-.39,53.42.76,80.07.55,12.62-2.75,16-15.7,16-93.75-.62-187.5-.33-281.26-.33H0V192.89c5.4,1.3,6.76-2.89,8.16-6.41,7.8-19.66,15.42-39.39,23.11-59.1C41.11,104.79,51,82.2,61.12,58.87c5.19,5.44,9.33,9.77,13.47,14.09a219.67,219.67,0,0,0,37.55,55c2.78,7,3.48,15.62,13.57,16.61.54,14.66,11.76,22.58,20.26,32.95,5-29.6,13.55-57.84,14.2-87.38l14.34-72.76c12.21,24.82,22.66,46.6,33.69,68.09,2.91,5.68,3.45,13.12,10.36,16.34,4.09,20.52,16.45,36.9,28.15,54.4,5.11-24.56,10.23-49.12,15.82-76,14.26,19.91,19.31,41.67,33.72,58,2.2,10.94,6.12,26.55,15.76,25.82,8.52-.63,3.17-16.68,3.2-25.93.15-41.73.07-83.47.07-121,14.34,25.29,24.15,59,43.05,88.1C362.51,126.2,375.08,143.39,386,162V83.58C405.93,105.21,417.42,129.56,436,148.34Z"/><path class="cls-2" d="M31.27,127.38C23.58,147.09,16,166.82,8.16,186.48,6.76,190,5.4,194.19,0,192.89V111.06c11.43-9.54,13.48-27.11,31.27-36Z"/><path class="cls-2" d="M296.25,138.14c-14.41-16.29-19.46-38-33.72-58-5.59,26.87-10.71,51.43-15.82,76-11.7-17.5-24.06-33.88-28.15-54.4,11.59-24,27.75-45.55,37.06-70.69C258,24.55,264.38,21,266.81,14.21c1.14-3.19,8.88-4.74,9.13,2.48,1.39,40.36,17.64,78.05,20.65,118.08A19.45,19.45,0,0,1,296.25,138.14Z"/><path class="cls-2" d="M436,148.34c-18.55-18.78-30-43.13-50-64.76V162c-10.91-18.57-23.48-35.76-27.66-56.84,15.28-13.48,20.58-34.49,36.6-47.72,6.53-5.4,7.55-7.77,11.22,2.12a593.83,593.83,0,0,0,25.44,58.14C436.65,127.83,436.81,137.8,436,148.34Z"/><path class="cls-2" d="M112.14,127.92A219.67,219.67,0,0,1,74.59,73c13.73-23.07,20.85-49.8,39.82-73C119.73,44.39,111.75,86.11,112.14,127.92Z"/><path class="cls-2" d="M160.17,90.1c-.65,29.54-9.21,57.78-14.2,87.38-8.5-10.37-19.72-18.29-20.26-32.95,7-7.08,10.22-16.25,14.57-24.89C145.63,109,150.54,97.92,160.17,90.1Z"/></g></g></svg>