<svg xmlns="http://www.w3.org/2000/svg" viewBox="0 0 455.6 453.44"><defs><style>.cls-1{fill:#e6e6e6;}.cls-2{fill:#fff;}</style></defs><title>Ativo 5</title><g id="Camada_2" data-name="Camada 2"><g id="Camada_1-2" data-name="Camada 1"><path class="cls-1" d="M230,417.76a36.2,36.2,0,0,1,36.19,35.68,47.18,47.18,0,1,0-72.37-.54A36.2,36.2,0,0,1,230,417.76Z"/><path class="cls-1" d="M147.56,396.88c18.57,11.92,25.13,34.86,14.83,51.47a43.5,43.5,0,0,0,26.84-18.67c13.93-21.69,5.43-52-19-67.66s-55.49-10.79-69.42,10.9a43.47,43.47,0,0,0-6,31.45C105.83,388.47,129.16,385.06,147.56,396.88Z"/><path class="cls-1" d="M53.08,157A36.19,36.19,0,0,1,9.73,183.5a47.18,47.18,0,1,0,18-70.11A36.2,36.2,0,0,1,53.08,157Z"/><path class="cls-1" d="M43.74,241.91a36.2,36.2,0,0,1-24.37,44.6A47.18,47.18,0,1,0,0,216.78,36.2,36.2,0,0,1,43.74,241.91Z"/><path class="cls-1" d="M79.86,328.65c5.94,20.78-8.15,43-31.51,50A62.79,62.79,0,0,0,88,380.09c30.92-8.84,49.67-38.14,41.86-65.45s-39.2-42.29-70.13-33.45a62.83,62.83,0,0,0-32.39,21.46C50.63,296.63,74,308.07,79.86,328.65Z"/><path class="cls-1" d="M317.86,396.59a36.19,36.19,0,0,1,46.6,20.27,47.18,47.18,0,1,0-67.71,25.54A36.19,36.19,0,0,1,317.86,396.59Z"/><path class="cls-1" d="M105.52,82.82A38.19,38.19,0,0,1,52.86,92.93,49.58,49.58,0,1,0,96.2,30.44,38.18,38.18,0,0,1,105.52,82.82Z"/><path class="cls-1" d="M382.56,330.68c15.27-14.52,40.5-12.82,56.64,3.71a58.29,58.29,0,0,0-16-34.11c-21-22.07-54.3-24.49-74.38-5.39s-19.31,52.48,1.7,74.56A58.39,58.39,0,0,0,383,387C367.73,370,367.43,345.08,382.56,330.68Z"/><path class="cls-1" d="M184.37,48A36.2,36.2,0,0,1,141.22,21.1,47.18,47.18,0,1,0,211.94,5.73,36.19,36.19,0,0,1,184.37,48Z"/><path class="cls-1" d="M353,87.56c-15.05-17.43-15.2-42-.46-55.15-11.54-.77-22.82,2.48-31.64,10.09-19.73,17-19.69,49.41.09,72.33s51.81,27.68,71.54,10.66C401.11,118,406,107.65,407,96.41,391.83,108.66,367.86,104.83,353,87.56Z"/><path class="cls-1" d="M418,246.45c1-23.09,17.81-41.12,37.56-40.55-7.85-8.53-18.28-13.93-29.92-14.46-26-1.18-48.25,22.48-49.62,52.84s18.61,55.93,44.64,57.11c11.39.52,22.05-3.72,30.55-11.19C431.79,288.66,417,269.34,418,246.45Z"/><path class="cls-1" d="M274.44,42.56C254.13,38.4,240.84,19.41,244.52,0a45.76,45.76,0,0,0-17.64,27.56c-5.24,25.53,12.17,50.67,38.88,56.14s52.6-10.78,57.84-36.31a45.8,45.8,0,0,0-5-31.66C314.09,34.72,294.57,46.69,274.44,42.56Z"/><path class="cls-1" d="M409.28,161.84A36.2,36.2,0,0,1,438.06,120a47.18,47.18,0,1,0,12.18,71.34A36.21,36.21,0,0,1,409.28,161.84Z"/><circle class="cls-1" cx="228.93" cy="228.7" r="177.33"/><circle class="cls-2" cx="231.8" cy="228.72" r="142.31"/></g></g></svg>